<svg viewBox="0 0 300 300" xmlns="http://www.w3.org/2000/svg">
  <!-- BiblioGo splash screen logo -->
  <g transform="translate(150, 150)">
    
    <!-- Modern book icon with enhanced design -->
    <g transform="translate(0, -30)">
      
      <!-- Book shadow/depth -->
      <rect x="-32" y="-37" width="70" height="80" rx="8" fill="#000000" opacity="0.1"/>
      
      <!-- Main book cover -->
      <rect x="-35" y="-40" width="70" height="80" rx="8" fill="#A78BFA"/>
      
      <!-- Book spine highlight -->
      <rect x="-35" y="-40" width="8" height="80" rx="8" fill="#8B5CF6"/>
      
      <!-- Book pages -->
      <rect x="-28" y="-35" width="56" height="70" rx="6" fill="#1F2937"/>
      <rect x="-26" y="-33" width="52" height="66" rx="4" fill="#374151"/>
      
      <!-- Modern page content lines -->
      <rect x="-20" y="-25" width="18" height="2" rx="1" fill="#F8FAFC" opacity="0.7"/>
      <rect x="-20" y="-18" width="28" height="2" rx="1" fill="#F8FAFC" opacity="0.7"/>
      <rect x="-20" y="-11" width="24" height="2" rx="1" fill="#F8FAFC" opacity="0.7"/>
      <rect x="-20" y="-4" width="32" height="2" rx="1" fill="#F8FAFC" opacity="0.7"/>
      <rect x="-20" y="3" width="26" height="2" rx="1" fill="#F8FAFC" opacity="0.7"/>
      <rect x="-20" y="10" width="30" height="2" rx="1" fill="#F8FAFC" opacity="0.7"/>
      <rect x="-20" y="17" width="22" height="2" rx="1" fill="#F8FAFC" opacity="0.7"/>
      <rect x="-20" y="24" width="28" height="2" rx="1" fill="#F8FAFC" opacity="0.7"/>
      
      <!-- Premium bookmark -->
      <rect x="32" y="-40" width="8" height="35" rx="4" fill="#34D399"/>
      <polygon points="32,-5 40,-5 36,2" fill="#34D399"/>
      
    </g>
    
    <!-- Dynamic motion effects for "Go" -->
    <g opacity="0.7">
      <!-- Left side motion trails -->
      <path d="M -90 -15 Q -70 -20 -45 -15" stroke="#A78BFA" stroke-width="4" fill="none" stroke-linecap="round" opacity="0.8"/>
      <path d="M -85 -5 Q -60 0 -40 -5" stroke="#A78BFA" stroke-width="3" fill="none" stroke-linecap="round" opacity="0.6"/>
      <path d="M -90 5 Q -70 10 -45 5" stroke="#A78BFA" stroke-width="4" fill="none" stroke-linecap="round" opacity="0.8"/>
      
      <!-- Right side motion trails -->
      <path d="M 45 -15 Q 70 -20 90 -15" stroke="#A78BFA" stroke-width="4" fill="none" stroke-linecap="round" opacity="0.8"/>
      <path d="M 40 -5 Q 60 0 85 -5" stroke="#A78BFA" stroke-width="3" fill="none" stroke-linecap="round" opacity="0.6"/>
      <path d="M 45 5 Q 70 10 90 5" stroke="#A78BFA" stroke-width="4" fill="none" stroke-linecap="round" opacity="0.8"/>
    </g>
    
    <!-- Floating particles for premium feel -->
    <circle cx="-60" cy="-60" r="4" fill="#34D399" opacity="0.8"/>
    <circle cx="65" cy="-50" r="3" fill="#FBBF24" opacity="0.7"/>
    <circle cx="-70" cy="50" r="2" fill="#F87171" opacity="0.6"/>
    <circle cx="70" cy="60" r="3" fill="#A78BFA" opacity="0.7"/>
    
    <!-- Main app title -->
    <text x="0" y="70" text-anchor="middle" font-family="Arial, sans-serif" font-size="36" font-weight="800" fill="#F8FAFC">Biblio</text>
    <text x="0" y="105" text-anchor="middle" font-family="Arial, sans-serif" font-size="36" font-weight="300" fill="#A78BFA">Go</text>
    
    <!-- Tagline -->
    <text x="0" y="125" text-anchor="middle" font-family="Arial, sans-serif" font-size="12" font-weight="400" fill="#D1D5DB" opacity="0.9">Free Books, Endless Stories</text>
    
  </g>
</svg>